<?xml version="1.0" encoding="UTF-8"?>
<svg version="1.1" viewBox="0 0 196.01 72.15" xmlns="http://www.w3.org/2000/svg"><path d="m20.004 2.2042e-4c-4.7053-0.01123-9.7801 0.40625-15.096 1.3437-5.62 1-5.4 4.3203-4.25 7.0703 1.15 2.75 2.6607 3.6595 7.2207 2.5195 1.91-0.51 3.9999-0.99891 6.1699-1.3789 0 0.93-0.26062 8.51-0.89062 20-0.67 12.3 1.7598 22.488 9.0898 21.318s1.6691-7.6294-0.46094-21.689a98.27 98.27 0 0 0 17.311-8.2793c2.42-1.55 14.9-9.8305 5.2402-15.561-5.4175-3.2175-13.982-5.319-24.334-5.3437zm8.6543 8.1133c22.34-0.3 15.26 8.8016-7.4199 16.852a112.71 112.71 0 0 1-0.58008-16.381c2.54-0.26 5.2-0.4407 8-0.4707zm116.22 4.2207c-1.2923-0.01668-1.0111 1.1218 0.4414 2.8105 3.86 4.51 2.2891 13.109-6.1309 18.449-11 7-20.49 5.3-21.33 1a8.09 8.09 0 0 1-0.11915-1.8906c3.57 0 6.0004-0.08953 13.9-2.7695 9.3-3.16 11.999-9.6288 7.0586-13.219-4.94-3.59-17.159-1.2401-24.219 8.1699s-3.9996 19.879 5.6504 21.229a19.08 19.08 0 0 0 8.5-1 41.24 41.24 0 0 0 16.67-10.99c-1.5 6.34-2.5003 11.881 2.6797 13.441 9.36 2.8 1.05-14.43 10.5-26.07a14.33 14.33 0 0 1 11-5.4395c4.68 0.12 0.0995-4.6205-6.4805-2.9805a23.12 23.12 0 0 0-10.82 6.5996s-2.0904-6.3098-6.6504-7.2598c-0.25-0.05125-0.46578-0.0777-0.65039-0.08008zm-64.869 2.668c-1.8022-0.12715-1.5595 0.96102-0.2207 2.0723 2.59 2.19 3.2102 4.1697 1.4902 11.93-2.03 8.85-3.5102 13.99-7.1602 13.32s-3.5382-5.481-2.4082-10.291c1.13-4.81 0.70844-8.45-3.3516-9.25s-4.19 2.39-10 9c-5.81 6.61-12.679 11.51-15.359 9.9004s2.3593-14.73 17.279-20.82c6.22-2.53 5.37-4.5887 2-5.1387-8-1.29-24.63 6.7885-25 22.479-0.21 8.65 8.2314 13.071 24.441-3.5586 0 0 1.3596 7.3292 6.8496 10.199 5.49 2.87 8.4991 0.32938 10.369 0.10938s6.0914 4.0016 8.6914-5.1484 9.0498-19.74 12.26-19.15c3.21 0.59-8.2604 13.629-0.15039 22.529 4.14 4.53 11.321 3.9494 9.1406 1.6894a16.56 16.56 0 0 1-3.3711-18.09c3.13-8.05 3.7908-11.339-3.3692-10.369-7.16 0.97-12.521 9.0508-12.521 9.0508s0.03101-8.5301-8.709-10.33c-0.34375-0.07125-0.64293-0.11465-0.90039-0.13281zm104.14 1.6211c-3.9462 0.04689-9.5284 1.5625-14.146 5.5-8.21 7-10.11 19.361-5.3398 23.221s15-1.1095 22.34-10.27c0 0 0.87 8.5995 6.25 10.77 1.75 0.71 3.3998 0.51086 2.5098-0.86914-2-2.95-3.5694-8.101-2.1094-14.541 1.47-6.61 1.75-9.2988-2-8.2988a4.3 4.3 0 0 0-1.1699 0.5c-4.39 2.29-5.2506 8.3891-12.811 15.289-8.05 7.35-13.49 4.2701-6.7305-6.4199 6.57-10.43 17.911-9.8095 18.221-12.77 0.13562-1.295-1.9444-2.1478-5.0137-2.1113zm-53.033 3.832c7.4937-0.26448 7.8602 4.2922-0.32422 6.8984a31.38 31.38 0 0 1-12.318 1.7207 14.44 14.44 0 0 1 11.049-8.5c0.5625-0.0625 1.0942-0.10151 1.5938-0.11914zm22.518 37.459a2.8 2.8 0 1 0 2.8301 2.7793 2.78 2.78 0 0 0-2.8301-2.7793zm-0.15625 0.43165a2.35 2.35 0 0 1 2.4453 2.3476 2.26 2.26 0 0 1-2.2891 2.3496 2.35 2.35 0 0 1-0.15625-4.6973zm-13.279 0.35546a5.37 5.37 0 0 0-0.19531 2e-3h-3.5391v13.441h3.5391a5.29 5.29 0 0 0 3-0.77148c1.03-0.67 1.4805-1.6488 1.4805-3.7988v-4.2598c0-2.16-0.48047-3.1305-1.4805-3.8105a5.37 5.37 0 0 0-2.8047-0.80274zm-81.195 2e-3v13.441l3.3203-0.13086c3.16 0 4.8594-1.3294 4.8594-3.8594a3.16 3.16 0 0 0-2.6289-3.0899v-0.0606a3 3 0 0 0 2.25-3c0-2-1.5508-3.3008-4.5508-3.3008zm19.59 0v13.441h2v-5.791h1.6699l2.6094 5.791h2.1309l-2.8203-6.0703a3.36 3.36 0 0 0 2.4512-3.5606c0-2.08-0.9618-3.8106-4.8418-3.8106zm19.77 0v13.441h7v-1.3711h-5v-4.9297l4.0098-0.0293v-1.3906h-4v-4.3496h4.8613v-1.3711zm21.041 0.0312-3.1309 13.41h2.0606l0.66992-3.1309h3.5195l0.70117 3.1309h2l-3.1113-13.41zm33.1 0.40039v3.2188h0.5v-1.4004h0.55078l0.85938 1.4004h0.58984l-0.92969-1.4199a0.83 0.83 0 0 0 0.84961-0.89062h-0.0391c0-0.62-0.37063-0.90821-1.1406-0.90821zm0.5 0.40821h0.66992c0.56 0 0.72071 0.17047 0.7207 0.48047 0 0.31-0.20054 0.51953-0.81054 0.51953h-0.58008zm-13.148 0.55859a3.5 3.5 0 0 1 1.6582 0.43164 2.57 2.57 0 0 1 1 2.3711v5.0801a2.54 2.54 0 0 1-1 2.3594 3.4 3.4 0 0 1-1.7891 0.42969h-1.25v-10.67h1.25a3.5 3.5 0 0 1 0.13086-2e-3zm-59.291 2e-3h1c2.43 0 3 1.0895 3 2.4394v0.0606c0 1.42-0.67969 2.4199-2.6797 2.4199h-1.291zm-19.561 0.0312h1.0996c1.79 0 2.6797 0.76836 2.6797 2.0684a2.23 2.23 0 0 1-2.4395 2.25h-1.3398zm59.721 0.66992h0.0899c0.05 0.43 0.21859 1.2088 0.30859 1.7988l1.1016 5h-2.8906l1.0703-5a15.75 15.75 0 0 0 0.32031-1.7988zm-59.721 5.0684h1.3594c1.73 0 2.7305 0.86008 2.7305 2.3301 0 1.69-0.85945 2.5703-2.9395 2.5703l-1.1504 0.0312z" fill="#657000"/></svg>
